<svg width="299" height="60" viewBox="0 0 299 60" fill="none" xmlns="http://www.w3.org/2000/svg">
<g clip-path="url(#clip0)">
<path d="M79.9 12.46V15.26H85.34V17.92H79.9V23H76.46V9.8H86.72V12.46H79.9ZM92.27 12.8C93.9367 12.8 95.23 13.26 96.15 14.18C97.0833 15.0867 97.55 16.36 97.55 18C97.55 19.64 97.0833 20.92 96.15 21.84C95.23 22.7467 93.9367 23.2 92.27 23.2C90.6033 23.2 89.3033 22.7467 88.37 21.84C87.45 20.92 86.99 19.64 86.99 18C86.99 16.36 87.45 15.0867 88.37 14.18C89.3033 13.26 90.6033 12.8 92.27 12.8ZM92.27 15.22C91.63 15.22 91.1567 15.44 90.85 15.88C90.5433 16.32 90.39 17.0267 90.39 18C90.39 18.9733 90.5433 19.68 90.85 20.12C91.1567 20.56 91.63 20.78 92.27 20.78C92.91 20.78 93.3833 20.56 93.69 20.12C93.9967 19.68 94.15 18.9733 94.15 18C94.15 17.0267 93.9967 16.32 93.69 15.88C93.3833 15.44 92.91 15.22 92.27 15.22ZM109.461 13V23H106.421L106.321 21.14C105.695 22.5133 104.541 23.2 102.861 23.2C101.795 23.2 100.955 22.92 100.341 22.36C99.7413 21.7867 99.4413 20.8933 99.4413 19.68V13H102.841V18.82C102.841 19.4733 102.955 19.9333 103.181 20.2C103.408 20.4667 103.755 20.6 104.221 20.6C104.781 20.6 105.228 20.4133 105.561 20.04C105.895 19.6533 106.061 19.0733 106.061 18.3V13H109.461ZM118.464 12.8C119.517 12.8 120.357 13.1067 120.984 13.72C121.61 14.3333 121.924 15.2067 121.924 16.34V23H118.524V17.28C118.524 16.6 118.397 16.12 118.144 15.84C117.904 15.5467 117.557 15.4 117.104 15.4C116.57 15.4 116.137 15.5933 115.804 15.98C115.47 16.3533 115.304 16.9333 115.304 17.72V23H111.904V13H114.944L115.044 14.92C115.364 14.2133 115.817 13.6867 116.404 13.34C116.99 12.98 117.677 12.8 118.464 12.8ZM134.446 8.76V23H131.386L131.266 21.1C130.973 21.7533 130.539 22.2667 129.966 22.64C129.406 23.0133 128.753 23.2 128.006 23.2C126.713 23.2 125.699 22.7467 124.966 21.84C124.246 20.9333 123.886 19.6667 123.886 18.04C123.886 16.3867 124.253 15.1 124.986 14.18C125.719 13.26 126.733 12.8 128.026 12.8C128.733 12.8 129.339 12.9667 129.846 13.3C130.353 13.6333 130.753 14.0933 131.046 14.68V8.76H134.446ZM129.186 20.7C129.733 20.7 130.166 20.5067 130.486 20.12C130.819 19.72 131.006 19.1467 131.046 18.4V17.6C131.006 16.8667 130.819 16.3 130.486 15.9C130.166 15.5 129.733 15.3 129.186 15.3C128.586 15.3 128.119 15.52 127.786 15.96C127.466 16.4 127.306 17.08 127.306 18C127.306 18.92 127.466 19.6 127.786 20.04C128.119 20.48 128.586 20.7 129.186 20.7ZM146.525 21.06C146.778 21.06 146.985 21.0333 147.145 20.98L146.885 22.88C146.498 23.0933 146.045 23.2 145.525 23.2C144.085 23.2 143.225 22.6867 142.945 21.66C142.345 22.6867 141.158 23.2 139.385 23.2C138.385 23.2 137.618 22.9867 137.085 22.56C136.551 22.1333 136.285 21.5133 136.285 20.7C136.285 19.8467 136.585 19.16 137.185 18.64C137.798 18.1067 138.798 17.7 140.185 17.42L142.445 16.98V16.62C142.445 16.1667 142.318 15.8067 142.065 15.54C141.811 15.2733 141.465 15.14 141.025 15.14C140.518 15.14 140.105 15.26 139.785 15.5C139.465 15.74 139.258 16.1333 139.165 16.68L136.405 15.88C136.578 14.9067 137.058 14.1533 137.845 13.62C138.631 13.0733 139.691 12.8 141.025 12.8C142.585 12.8 143.771 13.12 144.585 13.76C145.398 14.4 145.805 15.36 145.805 16.64V20.28C145.805 20.8 146.045 21.06 146.525 21.06ZM140.625 21C141.091 21 141.511 20.8733 141.885 20.62C142.258 20.3533 142.445 20.0067 142.445 19.58V18.72L140.825 19.1C140.398 19.2067 140.091 19.34 139.905 19.5C139.731 19.6467 139.645 19.86 139.645 20.14C139.645 20.42 139.731 20.6333 139.905 20.78C140.078 20.9267 140.318 21 140.625 21ZM155.355 22.44C155.022 22.6667 154.595 22.8533 154.075 23C153.568 23.1333 153.055 23.2 152.535 23.2C151.348 23.2 150.442 22.9467 149.815 22.44C149.188 21.9333 148.868 21.12 148.855 20V15.42H147.135V13H148.855V10.76L152.255 9.82V13H155.255V15.42H152.255V19.44C152.255 20.3333 152.695 20.78 153.575 20.78C154.122 20.78 154.602 20.6333 155.015 20.34L155.355 22.44ZM158.486 11.84C157.793 11.84 157.286 11.7133 156.966 11.46C156.66 11.1933 156.506 10.78 156.506 10.22C156.506 9.64667 156.66 9.23333 156.966 8.98C157.286 8.71333 157.793 8.58 158.486 8.58C159.18 8.58 159.68 8.71333 159.986 8.98C160.306 9.23333 160.466 9.64667 160.466 10.22C160.466 10.78 160.306 11.1933 159.986 11.46C159.68 11.7133 159.18 11.84 158.486 11.84ZM160.186 23H156.786V13H160.186V23ZM167.407 12.8C169.073 12.8 170.367 13.26 171.287 14.18C172.22 15.0867 172.687 16.36 172.687 18C172.687 19.64 172.22 20.92 171.287 21.84C170.367 22.7467 169.073 23.2 167.407 23.2C165.74 23.2 164.44 22.7467 163.507 21.84C162.587 20.92 162.127 19.64 162.127 18C162.127 16.36 162.587 15.0867 163.507 14.18C164.44 13.26 165.74 12.8 167.407 12.8ZM167.407 15.22C166.767 15.22 166.293 15.44 165.987 15.88C165.68 16.32 165.527 17.0267 165.527 18C165.527 18.9733 165.68 19.68 165.987 20.12C166.293 20.56 166.767 20.78 167.407 20.78C168.047 20.78 168.52 20.56 168.827 20.12C169.133 19.68 169.287 18.9733 169.287 18C169.287 17.0267 169.133 16.32 168.827 15.88C168.52 15.44 168.047 15.22 167.407 15.22ZM181.198 12.8C182.251 12.8 183.091 13.1067 183.718 13.72C184.345 14.3333 184.658 15.2067 184.658 16.34V23H181.258V17.28C181.258 16.6 181.131 16.12 180.878 15.84C180.638 15.5467 180.291 15.4 179.838 15.4C179.305 15.4 178.871 15.5933 178.538 15.98C178.205 16.3533 178.038 16.9333 178.038 17.72V23H174.638V13H177.678L177.778 14.92C178.098 14.2133 178.551 13.6867 179.138 13.34C179.725 12.98 180.411 12.8 181.198 12.8Z" fill="#2B292D"/>
<path d="M80.76 35.94C82.884 35.94 84.414 36.78 85.35 38.46L84.108 39.468C83.748 38.676 83.316 38.118 82.812 37.794C82.32 37.458 81.642 37.29 80.778 37.29C79.866 37.29 79.146 37.482 78.618 37.866C78.102 38.238 77.844 38.718 77.844 39.306C77.844 39.69 77.946 40.008 78.15 40.26C78.354 40.512 78.69 40.734 79.158 40.926C79.638 41.106 80.298 41.268 81.138 41.412C82.71 41.676 83.82 42.072 84.468 42.6C85.128 43.128 85.458 43.86 85.458 44.796C85.458 45.468 85.266 46.062 84.882 46.578C84.51 47.082 83.976 47.478 83.28 47.766C82.584 48.042 81.78 48.18 80.868 48.18C79.668 48.18 78.642 47.946 77.79 47.478C76.95 47.01 76.308 46.386 75.864 45.606L77.106 44.598C77.43 45.306 77.904 45.858 78.528 46.254C79.164 46.638 79.956 46.83 80.904 46.83C81.84 46.83 82.584 46.662 83.136 46.326C83.688 45.978 83.964 45.492 83.964 44.868C83.964 44.34 83.724 43.92 83.244 43.608C82.764 43.296 81.912 43.032 80.688 42.816C79.104 42.54 77.982 42.144 77.322 41.628C76.662 41.112 76.332 40.392 76.332 39.468C76.332 38.832 76.512 38.244 76.872 37.704C77.232 37.164 77.748 36.738 78.42 36.426C79.092 36.102 79.872 35.94 80.76 35.94ZM93.7133 47.37C93.1133 47.91 92.3393 48.18 91.3913 48.18C90.6593 48.18 90.0593 47.982 89.5913 47.586C89.1353 47.19 88.9013 46.584 88.8893 45.768V40.242H87.0893V39H88.8893V36.84L90.3293 36.444V39H93.6593V40.242H90.3293V45.516C90.3293 45.948 90.4493 46.278 90.6893 46.506C90.9413 46.722 91.2713 46.83 91.6793 46.83C92.2553 46.83 92.7653 46.608 93.2093 46.164L93.7133 47.37ZM103.126 46.956C103.366 46.956 103.606 46.926 103.846 46.866L103.756 48C103.42 48.12 103.06 48.18 102.676 48.18C102.208 48.18 101.836 48.078 101.56 47.874C101.296 47.67 101.128 47.328 101.056 46.848C100.78 47.268 100.372 47.598 99.8323 47.838C99.3043 48.066 98.7463 48.18 98.1583 48.18C97.2703 48.18 96.5383 47.976 95.9623 47.568C95.3863 47.148 95.0983 46.548 95.0983 45.768C95.0983 45.084 95.3983 44.496 95.9983 44.004C96.5983 43.5 97.4683 43.152 98.6083 42.96L101.002 42.564V42.06C101.002 41.46 100.816 40.98 100.444 40.62C100.072 40.26 99.5563 40.08 98.8963 40.08C98.2963 40.08 97.7743 40.224 97.3303 40.512C96.8983 40.8 96.5623 41.226 96.3223 41.79L95.2603 41.016C95.5003 40.344 95.9443 39.81 96.5923 39.414C97.2523 39.018 98.0203 38.82 98.8963 38.82C99.9643 38.82 100.822 39.078 101.47 39.594C102.118 40.11 102.442 40.872 102.442 41.88V46.308C102.442 46.524 102.496 46.686 102.604 46.794C102.712 46.902 102.886 46.956 103.126 46.956ZM98.2303 46.92C98.9863 46.92 99.6343 46.74 100.174 46.38C100.726 46.02 101.002 45.552 101.002 44.976V43.734L98.9863 44.112C98.1823 44.256 97.5823 44.466 97.1863 44.742C96.7903 45.006 96.5923 45.348 96.5923 45.768C96.5923 46.14 96.7363 46.428 97.0243 46.632C97.3123 46.824 97.7143 46.92 98.2303 46.92ZM110.19 38.82C110.622 38.82 110.952 38.88 111.18 39L110.892 40.404C110.604 40.248 110.226 40.17 109.758 40.17C109.374 40.17 108.996 40.284 108.624 40.512C108.264 40.728 107.964 41.064 107.724 41.52C107.496 41.964 107.382 42.504 107.382 43.14V48H105.942V39H107.112L107.31 40.476C107.814 39.372 108.774 38.82 110.19 38.82ZM118.252 47.37C117.652 47.91 116.878 48.18 115.93 48.18C115.198 48.18 114.598 47.982 114.13 47.586C113.674 47.19 113.44 46.584 113.428 45.768V40.242H111.628V39H113.428V36.84L114.868 36.444V39H118.198V40.242H114.868V45.516C114.868 45.948 114.988 46.278 115.228 46.506C115.48 46.722 115.81 46.83 116.218 46.83C116.794 46.83 117.304 46.608 117.748 46.164L118.252 47.37ZM128.079 39V48H126.819L126.729 46.632C126.129 47.664 125.055 48.18 123.507 48.18C122.535 48.18 121.737 47.91 121.113 47.37C120.501 46.83 120.195 46.002 120.195 44.886V39H121.635V44.508C121.635 45.384 121.815 46.008 122.175 46.38C122.535 46.74 123.063 46.92 123.759 46.92C124.587 46.92 125.271 46.668 125.811 46.164C126.363 45.66 126.639 44.904 126.639 43.896V39H128.079ZM135.858 38.82C137.118 38.82 138.114 39.24 138.846 40.08C139.59 40.908 139.962 42.048 139.962 43.5C139.962 44.952 139.59 46.098 138.846 46.938C138.114 47.766 137.118 48.18 135.858 48.18C135.198 48.18 134.604 48.036 134.076 47.748C133.56 47.46 133.158 47.076 132.87 46.596V51.78H131.43V39H132.69L132.78 40.566C133.044 40.038 133.446 39.618 133.986 39.306C134.538 38.982 135.162 38.82 135.858 38.82ZM135.696 46.92C136.572 46.92 137.262 46.614 137.766 46.002C138.27 45.378 138.522 44.544 138.522 43.5C138.522 42.456 138.27 41.628 137.766 41.016C137.262 40.392 136.572 40.08 135.696 40.08C134.832 40.08 134.142 40.38 133.626 40.98C133.122 41.58 132.87 42.384 132.87 43.392V43.608C132.87 44.616 133.122 45.42 133.626 46.02C134.142 46.62 134.832 46.92 135.696 46.92ZM150.271 45.588C150.271 46.044 150.337 46.362 150.469 46.542C150.613 46.71 150.871 46.794 151.243 46.794C151.495 46.794 151.711 46.776 151.891 46.74C152.083 46.704 152.305 46.638 152.557 46.542L152.323 47.928C151.927 48.096 151.483 48.18 150.991 48.18C150.259 48.18 149.713 47.982 149.353 47.586C149.005 47.19 148.831 46.584 148.831 45.768V34.86H150.271V45.588ZM161.784 46.956C162.024 46.956 162.264 46.926 162.504 46.866L162.414 48C162.078 48.12 161.718 48.18 161.334 48.18C160.866 48.18 160.494 48.078 160.218 47.874C159.954 47.67 159.786 47.328 159.714 46.848C159.438 47.268 159.03 47.598 158.49 47.838C157.962 48.066 157.404 48.18 156.816 48.18C155.928 48.18 155.196 47.976 154.62 47.568C154.044 47.148 153.756 46.548 153.756 45.768C153.756 45.084 154.056 44.496 154.656 44.004C155.256 43.5 156.126 43.152 157.266 42.96L159.66 42.564V42.06C159.66 41.46 159.474 40.98 159.102 40.62C158.73 40.26 158.214 40.08 157.554 40.08C156.954 40.08 156.432 40.224 155.988 40.512C155.556 40.8 155.22 41.226 154.98 41.79L153.918 41.016C154.158 40.344 154.602 39.81 155.25 39.414C155.91 39.018 156.678 38.82 157.554 38.82C158.622 38.82 159.48 39.078 160.128 39.594C160.776 40.11 161.1 40.872 161.1 41.88V46.308C161.1 46.524 161.154 46.686 161.262 46.794C161.37 46.902 161.544 46.956 161.784 46.956ZM156.888 46.92C157.644 46.92 158.292 46.74 158.832 46.38C159.384 46.02 159.66 45.552 159.66 44.976V43.734L157.644 44.112C156.84 44.256 156.24 44.466 155.844 44.742C155.448 45.006 155.25 45.348 155.25 45.768C155.25 46.14 155.394 46.428 155.682 46.632C155.97 46.824 156.372 46.92 156.888 46.92ZM168.974 38.82C169.994 38.82 170.834 39.114 171.494 39.702C172.154 40.29 172.484 41.136 172.484 42.24V48H171.044V42.744C171.044 41.808 170.84 41.13 170.432 40.71C170.036 40.29 169.502 40.08 168.83 40.08C168.35 40.08 167.9 40.188 167.48 40.404C167.06 40.608 166.712 40.95 166.436 41.43C166.172 41.898 166.04 42.492 166.04 43.212V48H164.6V39H165.86L165.95 40.404C166.25 39.864 166.664 39.468 167.192 39.216C167.72 38.952 168.314 38.82 168.974 38.82ZM183.736 34.86V48H182.476L182.386 46.434C182.122 46.962 181.714 47.388 181.162 47.712C180.622 48.024 180.004 48.18 179.308 48.18C178.048 48.18 177.046 47.766 176.302 46.938C175.57 46.098 175.204 44.952 175.204 43.5C175.204 42.048 175.57 40.908 176.302 40.08C177.046 39.24 178.048 38.82 179.308 38.82C179.968 38.82 180.556 38.964 181.072 39.252C181.6 39.54 182.008 39.924 182.296 40.404V34.86H183.736ZM179.47 46.92C180.334 46.92 181.018 46.62 181.522 46.02C182.038 45.42 182.296 44.616 182.296 43.608V43.392C182.296 42.384 182.038 41.58 181.522 40.98C181.018 40.38 180.334 40.08 179.47 40.08C178.594 40.08 177.904 40.392 177.4 41.016C176.896 41.628 176.644 42.456 176.644 43.5C176.644 44.544 176.896 45.378 177.4 46.002C177.904 46.614 178.594 46.92 179.47 46.92ZM187.802 37.272C187.478 37.272 187.214 37.176 187.01 36.984C186.818 36.78 186.722 36.516 186.722 36.192C186.722 35.868 186.818 35.61 187.01 35.418C187.214 35.214 187.478 35.112 187.802 35.112C188.126 35.112 188.384 35.214 188.576 35.418C188.78 35.61 188.882 35.868 188.882 36.192C188.882 36.516 188.78 36.78 188.576 36.984C188.384 37.176 188.126 37.272 187.802 37.272ZM188.522 48H187.082V39H188.522V48ZM196.237 38.82C197.257 38.82 198.097 39.114 198.757 39.702C199.417 40.29 199.747 41.136 199.747 42.24V48H198.307V42.744C198.307 41.808 198.103 41.13 197.695 40.71C197.299 40.29 196.765 40.08 196.093 40.08C195.613 40.08 195.163 40.188 194.743 40.404C194.323 40.608 193.975 40.95 193.699 41.43C193.435 41.898 193.303 42.492 193.303 43.212V48H191.863V39H193.123L193.213 40.404C193.513 39.864 193.927 39.468 194.455 39.216C194.983 38.952 195.577 38.82 196.237 38.82ZM208.03 46.848C208.882 46.848 209.548 47.04 210.028 47.424C210.508 47.808 210.748 48.33 210.748 48.99C210.748 49.566 210.55 50.07 210.154 50.502C209.758 50.946 209.218 51.282 208.534 51.51C207.862 51.75 207.118 51.87 206.302 51.87C204.934 51.87 203.902 51.648 203.206 51.204C202.51 50.772 202.162 50.202 202.162 49.494C202.162 49.086 202.3 48.726 202.576 48.414C202.864 48.102 203.254 47.88 203.746 47.748C203.374 47.568 203.074 47.34 202.846 47.064C202.63 46.788 202.522 46.464 202.522 46.092C202.522 45.648 202.642 45.282 202.882 44.994C203.122 44.694 203.452 44.472 203.872 44.328C203.44 44.064 203.11 43.722 202.882 43.302C202.666 42.87 202.558 42.39 202.558 41.862C202.558 41.274 202.714 40.752 203.026 40.296C203.338 39.828 203.776 39.468 204.34 39.216C204.904 38.952 205.54 38.82 206.248 38.82C206.92 38.82 207.532 38.94 208.084 39.18C208.42 37.956 209.266 37.344 210.622 37.344L210.946 38.604C209.77 38.604 209.056 38.934 208.804 39.594C209.164 39.87 209.44 40.2 209.632 40.584C209.836 40.968 209.938 41.394 209.938 41.862C209.938 42.45 209.782 42.978 209.47 43.446C209.158 43.902 208.72 44.262 208.156 44.526C207.592 44.778 206.956 44.904 206.248 44.904C205.72 44.904 205.258 44.85 204.862 44.742C204.502 44.826 204.244 44.958 204.088 45.138C203.932 45.318 203.854 45.564 203.854 45.876C203.854 46.188 203.962 46.428 204.178 46.596C204.394 46.764 204.682 46.848 205.042 46.848H208.03ZM206.248 39.99C205.624 39.99 205.102 40.164 204.682 40.512C204.262 40.86 204.052 41.31 204.052 41.862C204.052 42.414 204.262 42.864 204.682 43.212C205.102 43.56 205.624 43.734 206.248 43.734C206.872 43.734 207.394 43.56 207.814 43.212C208.234 42.864 208.444 42.414 208.444 41.862C208.444 41.31 208.234 40.86 207.814 40.512C207.394 40.164 206.872 39.99 206.248 39.99ZM206.464 50.664C207.376 50.664 208.096 50.514 208.624 50.214C209.152 49.926 209.416 49.572 209.416 49.152C209.416 48.804 209.278 48.54 209.002 48.36C208.738 48.18 208.282 48.09 207.634 48.09H205.222C204.67 48.09 204.244 48.186 203.944 48.378C203.644 48.582 203.494 48.858 203.494 49.206C203.494 49.662 203.746 50.016 204.25 50.268C204.754 50.532 205.492 50.664 206.464 50.664ZM224.178 47.37C223.578 47.91 222.804 48.18 221.856 48.18C221.124 48.18 220.524 47.982 220.056 47.586C219.6 47.19 219.366 46.584 219.354 45.768V40.242H217.554V39H219.354V36.84L220.794 36.444V39H224.124V40.242H220.794V45.516C220.794 45.948 220.914 46.278 221.154 46.506C221.406 46.722 221.736 46.83 222.144 46.83C222.72 46.83 223.23 46.608 223.674 46.164L224.178 47.37ZM233.933 43.032C233.933 43.368 233.909 43.704 233.861 44.04H227.075C227.159 44.952 227.459 45.66 227.975 46.164C228.503 46.668 229.181 46.92 230.009 46.92C230.669 46.92 231.215 46.806 231.647 46.578C232.091 46.35 232.391 46.02 232.547 45.588L233.753 46.218C233.393 46.854 232.913 47.34 232.313 47.676C231.713 48.012 230.945 48.18 230.009 48.18C228.653 48.18 227.585 47.766 226.805 46.938C226.037 46.11 225.653 44.964 225.653 43.5C225.653 42.036 226.019 40.89 226.751 40.062C227.495 39.234 228.545 38.82 229.901 38.82C230.741 38.82 231.467 39.006 232.079 39.378C232.691 39.75 233.153 40.254 233.465 40.89C233.777 41.526 233.933 42.24 233.933 43.032ZM229.901 40.08C229.109 40.08 228.467 40.314 227.975 40.782C227.495 41.25 227.201 41.91 227.093 42.762H232.547C232.451 41.922 232.175 41.268 231.719 40.8C231.263 40.32 230.657 40.08 229.901 40.08ZM247.128 38.82C247.728 38.82 248.286 38.946 248.802 39.198C249.33 39.438 249.756 39.816 250.08 40.332C250.404 40.848 250.566 41.484 250.566 42.24V48H249.126V42.384C249.126 41.604 248.928 41.028 248.532 40.656C248.148 40.272 247.638 40.08 247.002 40.08C246.522 40.08 246.078 40.2 245.67 40.44C245.274 40.668 244.95 41.01 244.698 41.466C244.458 41.91 244.338 42.444 244.338 43.068V48H242.898V42.384C242.898 41.604 242.7 41.028 242.304 40.656C241.92 40.272 241.41 40.08 240.774 40.08C240.342 40.08 239.922 40.194 239.514 40.422C239.106 40.638 238.77 40.98 238.506 41.448C238.242 41.916 238.11 42.498 238.11 43.194V48H236.67V39H237.93L238.02 40.404C238.332 39.876 238.74 39.48 239.244 39.216C239.76 38.952 240.312 38.82 240.9 38.82C241.56 38.82 242.166 38.97 242.718 39.27C243.282 39.57 243.708 40.008 243.996 40.584C244.26 40.008 244.692 39.57 245.292 39.27C245.892 38.97 246.504 38.82 247.128 38.82ZM258.254 38.82C259.514 38.82 260.51 39.24 261.242 40.08C261.986 40.908 262.358 42.048 262.358 43.5C262.358 44.952 261.986 46.098 261.242 46.938C260.51 47.766 259.514 48.18 258.254 48.18C257.594 48.18 257 48.036 256.472 47.748C255.956 47.46 255.554 47.076 255.266 46.596V51.78H253.826V39H255.086L255.176 40.566C255.44 40.038 255.842 39.618 256.382 39.306C256.934 38.982 257.558 38.82 258.254 38.82ZM258.092 46.92C258.968 46.92 259.658 46.614 260.162 46.002C260.666 45.378 260.918 44.544 260.918 43.5C260.918 42.456 260.666 41.628 260.162 41.016C259.658 40.392 258.968 40.08 258.092 40.08C257.228 40.08 256.538 40.38 256.022 40.98C255.518 41.58 255.266 42.384 255.266 43.392V43.608C255.266 44.616 255.518 45.42 256.022 46.02C256.538 46.62 257.228 46.92 258.092 46.92ZM266.532 45.588C266.532 46.044 266.598 46.362 266.73 46.542C266.874 46.71 267.132 46.794 267.504 46.794C267.756 46.794 267.972 46.776 268.152 46.74C268.344 46.704 268.566 46.638 268.818 46.542L268.584 47.928C268.188 48.096 267.744 48.18 267.252 48.18C266.52 48.18 265.974 47.982 265.614 47.586C265.266 47.19 265.092 46.584 265.092 45.768V34.86H266.532V45.588ZM278.046 46.956C278.286 46.956 278.526 46.926 278.766 46.866L278.676 48C278.34 48.12 277.98 48.18 277.596 48.18C277.128 48.18 276.756 48.078 276.48 47.874C276.216 47.67 276.048 47.328 275.976 46.848C275.7 47.268 275.292 47.598 274.752 47.838C274.224 48.066 273.666 48.18 273.078 48.18C272.19 48.18 271.458 47.976 270.882 47.568C270.306 47.148 270.018 46.548 270.018 45.768C270.018 45.084 270.318 44.496 270.918 44.004C271.518 43.5 272.388 43.152 273.528 42.96L275.922 42.564V42.06C275.922 41.46 275.736 40.98 275.364 40.62C274.992 40.26 274.476 40.08 273.816 40.08C273.216 40.08 272.694 40.224 272.25 40.512C271.818 40.8 271.482 41.226 271.242 41.79L270.18 41.016C270.42 40.344 270.864 39.81 271.512 39.414C272.172 39.018 272.94 38.82 273.816 38.82C274.884 38.82 275.742 39.078 276.39 39.594C277.038 40.11 277.362 40.872 277.362 41.88V46.308C277.362 46.524 277.416 46.686 277.524 46.794C277.632 46.902 277.806 46.956 278.046 46.956ZM273.15 46.92C273.906 46.92 274.554 46.74 275.094 46.38C275.646 46.02 275.922 45.552 275.922 44.976V43.734L273.906 44.112C273.102 44.256 272.502 44.466 272.106 44.742C271.71 45.006 271.512 45.348 271.512 45.768C271.512 46.14 271.656 46.428 271.944 46.632C272.232 46.824 272.634 46.92 273.15 46.92ZM286.018 47.37C285.418 47.91 284.644 48.18 283.696 48.18C282.964 48.18 282.364 47.982 281.896 47.586C281.44 47.19 281.206 46.584 281.194 45.768V40.242H279.394V39H281.194V36.84L282.634 36.444V39H285.964V40.242H282.634V45.516C282.634 45.948 282.754 46.278 282.994 46.506C283.246 46.722 283.576 46.83 283.984 46.83C284.56 46.83 285.07 46.608 285.514 46.164L286.018 47.37ZM295.773 43.032C295.773 43.368 295.749 43.704 295.701 44.04H288.915C288.999 44.952 289.299 45.66 289.815 46.164C290.343 46.668 291.021 46.92 291.849 46.92C292.509 46.92 293.055 46.806 293.487 46.578C293.931 46.35 294.231 46.02 294.387 45.588L295.593 46.218C295.233 46.854 294.753 47.34 294.153 47.676C293.553 48.012 292.785 48.18 291.849 48.18C290.493 48.18 289.425 47.766 288.645 46.938C287.877 46.11 287.493 44.964 287.493 43.5C287.493 42.036 287.859 40.89 288.591 40.062C289.335 39.234 290.385 38.82 291.741 38.82C292.581 38.82 293.307 39.006 293.919 39.378C294.531 39.75 294.993 40.254 295.305 40.89C295.617 41.526 295.773 42.24 295.773 43.032ZM291.741 40.08C290.949 40.08 290.307 40.314 289.815 40.782C289.335 41.25 289.041 41.91 288.933 42.762H294.387C294.291 41.922 294.015 41.268 293.559 40.8C293.103 40.32 292.497 40.08 291.741 40.08Z" fill="#2B292D" fill-opacity="0.6"/>
<g filter="url(#filter0_ddi)">
<rect width="60" height="60" rx="14" fill="white"/>
<rect width="60" height="60" rx="14" fill="url(#paint0_linear)" fill-opacity="0.1" style="mix-blend-mode:overlay"/>
</g>
<path fill-rule="evenodd" clip-rule="evenodd" d="M17.8077 27.0655V25.8014C17.8077 25.4568 18.0943 25.1694 18.4479 25.1694H42.5521C42.9072 25.1694 43.1923 25.4523 43.1923 25.8014V27.0655C40.918 27.0659 38.8765 28.0591 37.481 29.6335C36.0854 28.0586 34.0432 27.0655 31.7678 27.0655H29.2322C26.9575 27.0655 24.9156 28.0585 23.5199 29.633C22.1242 28.0585 20.0823 27.0655 17.8077 27.0655ZM45.7308 23.2732H15.2692C14.5683 23.2732 14 22.7072 14 22.0091V11.2641C14 10.566 14.5683 10 15.2692 10H20.9808C21.6817 10 22.25 10.566 22.25 11.2641V15.0565H25.4231V11.2641C25.4231 10.566 25.9913 10 26.6923 10H34.3077C35.0087 10 35.5769 10.566 35.5769 11.2641V15.0565H38.75V11.2641C38.75 10.566 39.3183 10 40.0192 10H45.7308C46.4317 10 47 10.566 47 11.2641V22.0091C47 22.7072 46.4317 23.2732 45.7308 23.2732ZM37.481 32.3524C38.8456 30.3087 41.1791 28.9617 43.8283 28.9617C44.5293 28.9617 45.0975 29.5277 45.0975 30.2258V49.1875C45.0975 49.8857 44.5293 50.4516 43.8283 50.4516H37.4808C36.7798 50.4516 36.2115 49.8857 36.2115 49.1875V36.5464C36.2115 33.753 33.9385 31.4899 31.1332 31.4899H29.8668C27.0622 31.4899 24.7885 33.7539 24.7885 36.5464V49.1875C24.7885 49.8851 24.2211 50.4507 23.521 50.4516L23.5206 50.4516H17.1731C16.4721 50.4516 15.9038 49.8857 15.9038 49.1875V30.2258C15.9038 29.5277 16.4721 28.9617 17.1731 28.9617C19.822 28.9617 22.1552 30.3084 23.5199 32.3517C24.8846 30.3084 27.2179 28.9617 29.8668 28.9617H31.1332C33.783 28.9617 36.1165 30.3085 37.481 32.3524ZM38.75 44.0746L42.4131 41.237C42.4601 41.2006 42.5089 41.168 42.5591 41.1391V38.0064L38.75 40.9571V44.0746ZM38.75 37.7542L42.4131 34.9165C42.4601 34.8801 42.5089 34.8475 42.5591 34.8187V31.6163C42.5591 31.6163 42.0069 31.7446 41.2515 32.1884C39.7544 33.0679 38.75 34.6904 38.75 36.5464V37.7542ZM38.75 47.2775V47.9234H42.5591V44.3269L38.75 47.2775ZM18.4423 41.1399C18.492 41.1686 18.5403 41.201 18.5869 41.237L22.2514 44.0757V40.9581L18.4423 38.0074V41.1399ZM18.4423 34.8194C18.492 34.8481 18.5404 34.8804 18.587 34.9165L22.2514 37.7551V36.5464C22.2514 34.1861 20.627 32.2034 18.4423 31.6462V34.8194ZM18.4423 44.3279V47.9234H22.2514V47.2786L18.4423 44.3279Z" fill="url(#paint1_linear)"/>
</g>
<defs>
<filter id="filter0_ddi" x="-6" y="-2" width="72" height="72" filterUnits="userSpaceOnUse" color-interpolation-filters="sRGB">
<feFlood flood-opacity="0" result="BackgroundImageFix"/>
<feColorMatrix in="SourceAlpha" type="matrix" values="0 0 0 0 0 0 0 0 0 0 0 0 0 0 0 0 0 0 127 0"/>
<feOffset dy="4"/>
<feGaussianBlur stdDeviation="3"/>
<feColorMatrix type="matrix" values="0 0 0 0 0 0 0 0 0 0 0 0 0 0 0 0 0 0 0.05 0"/>
<feBlend mode="normal" in2="BackgroundImageFix" result="effect1_dropShadow"/>
<feColorMatrix in="SourceAlpha" type="matrix" values="0 0 0 0 0 0 0 0 0 0 0 0 0 0 0 0 0 0 127 0"/>
<feOffset dy="1"/>
<feGaussianBlur stdDeviation="1.5"/>
<feColorMatrix type="matrix" values="0 0 0 0 0 0 0 0 0 0 0 0 0 0 0 0 0 0 0.1 0"/>
<feBlend mode="normal" in2="effect1_dropShadow" result="effect2_dropShadow"/>
<feBlend mode="normal" in="SourceGraphic" in2="effect2_dropShadow" result="shape"/>
<feColorMatrix in="SourceAlpha" type="matrix" values="0 0 0 0 0 0 0 0 0 0 0 0 0 0 0 0 0 0 127 0" result="hardAlpha"/>
<feOffset dy="1"/>
<feComposite in2="hardAlpha" operator="arithmetic" k2="-1" k3="1"/>
<feColorMatrix type="matrix" values="0 0 0 0 1 0 0 0 0 1 0 0 0 0 1 0 0 0 0.1 0"/>
<feBlend mode="normal" in2="shape" result="effect3_innerShadow"/>
</filter>
<linearGradient id="paint0_linear" x1="0" y1="0" x2="0" y2="60" gradientUnits="userSpaceOnUse">
<stop stop-color="white" stop-opacity="0.5"/>
<stop offset="1" stop-color="white" stop-opacity="0.01"/>
</linearGradient>
<linearGradient id="paint1_linear" x1="0.31875" y1="28.4982" x2="37.2213" y2="61.4145" gradientUnits="userSpaceOnUse">
<stop stop-color="#3142C6"/>
<stop offset="1" stop-color="#AF61D1"/>
</linearGradient>
<clipPath id="clip0">
<rect width="299" height="60" fill="white"/>
</clipPath>
</defs>
</svg>
